#!OML:ASF G:\JayActor3\Patient Classification 1\Patient 1\Session 6\male.ASF
:FULLY-SPECIFIED
:DEGREES
3659
root -6.3678 16.4713 6.01046 2333.01 -58.8115 -2331.16
lowerback 1.1359 -2.37843 -1.55128
upperback 9.56337 -3.62081 -0.602889
thorax 9.50587 -2.09261 -0.0701186
lowerneck 9.68104 -10.3863 -6.05688
upperneck -10.8646 -13.3658 18.1506
head -3.09761 -7.63916 7.15247
rclavicle -2.94201e-014 2.8625e-014
rhumerus -15.5855 -9.12037 -90.0552
rradius 30.9884
rwrist 3.4207
rhand -23.1331 -14.3145
rfingers 7.12502
rthumb 3.31453 -44.2685
lclavicle -2.94201e-014 2.8625e-014
lhumerus -20.8279 24.5556 77.1581
lradius 21.0461
lwrist 22.8829
lhand -19.7015 12.8027
lfingers 7.12502
lthumb 6.62797 42.679
rfemur -26.6579 11.1455 15.4825
rtibia 40.2149
rfoot 1.32368 15.049
rtoes 11.8335
lfemur -6.84682 10.7097 -16.3543
ltibia 28.8629
lfoot -24.3569 15.095
ltoes 1.77184
3660
root -6.34999 16.4596 6.0521 2333.31 -58.3719 -2331.58
lowerback 1.19763 -2.2773 -1.67885
upperback 9.6304 -3.48757 -0.659588
thorax 9.54633 -2.04011 -0.0499421
lowerneck 9.42467 -9.8368 -5.39305
upperneck -11.036 -12.5571 17.1953
head -3.32244 -7.19668 6.75282
rclavicle 2.70347e-014 -3.81667e-014
rhumerus -15.6572 -9.48887 -89.9051
rradius 31.1585
rwrist 3.10253
rhand -23.1104 -14.3212
rfingers 7.12502
rthumb 3.3365 -44.2748
lclavicle 2.70347e-014 -3.81667e-014
lhumerus -20.6349 24.2241 77.3326
lradius 21.057
lwrist 22.9416
lhand -19.8437 12.652
lfingers 7.12502
lthumb 6.4907 42.5326
rfemur -26.952 11.0123 15.3032
rtibia 40.4852
rfoot 0.636666 14.9766
rtoes 9.6314
lfemur -6.75161 10.796 -16.6856
ltibia 28.7184
lfoot -24.623 15.4001
ltoes 2.29715
3661
root -6.33226 16.4484 6.09207 2333.6 -57.9757 -2332.01
lowerback 1.25072 -2.17582 -1.80292
upperback 9.70848 -3.35369 -0.732741
thorax 9.60282 -1.98677 -0.0501864
lowerneck 9.23669 -9.24158 -4.76053
upperneck -11.2619 -11.6951 16.2849
head -3.56217 -6.73558 6.37143
rclavicle 7.27552e-014 7.95139e-016
rhumerus -15.7174 -9.92175 -89.7791
rradius 31.3013
rwrist 2.76755
rhand -23.1361 -14.2815
rfingers 7.12502
rthumb 3.31167 -44.2355
lclavicle 7.27552e-014 7.95139e-016
lhumerus -20.4373 23.902 77.4783
lradius 21.042
lwrist 22.9273
lhand -19.9307 12.5445
lfingers 7.12502
lthumb 6.40671 42.4276
rfemur -27.2057 10.8654 15.121
rtibia 40.7765
rfoot -0.173788 14.8929
rtoes 7.39174
lfemur -6.63227 10.8986 -17.0136
ltibia 28.5663
lfoot -24.8459 15.6134
ltoes 2.80096
3662
root -6.31457 16.438 6.12989 2333.88 -57.6151 -2332.44
lowerback 1.28128 -2.06784 -1.90901
upperback 9.79626 -3.21048 -0.825128
thorax 9.68104 -1.92679 -0.0818048
lowerneck 9.08651 -8.62683 -4.12852
upperneck -11.5066 -10.8142 15.3991
head -3.80063 -6.27018 5.99251
rclavicle -2.3059e-014 4.53229e-014
rhumerus -15.769 -10.4185 -89.6831
rradius 31.4117
rwrist 2.44235
rhand -23.1902 -14.2082
rfingers 7.12502
rthumb 3.25941 -44.163
lclavicle -2.3059e-014 4.53229e-014
lhumerus -20.2232 23.5784 77.5892
lradius 20.9948
lwrist 22.8357
lhand -19.9689 12.4654
lfingers 7.12502
lthumb 6.36989 42.3496
rfemur -27.4269 10.7079 14.9484
rtibia 41.0926
rfoot -1.06098 14.79
rtoes 5.27312
lfemur -6.50237 11.0345 -17.3225
ltibia 28.4181
lfoot -25.0208 15.7207
ltoes 3.2741
3663
root -6.29686 16.4285 6.16523 2334.13 -57.2846 -2332.86
lowerback 1.28875 -1.95444 -1.99467
upperback 9.8871 -3.05886 -0.933558
thorax 9.77425 -1.86023 -0.142482
lowerneck 8.96108 -8.00143 -3.50571
upperneck -11.7362 -9.92874 14.5368
head -4.02357 -5.80514 5.61448
rclavicle 2.54444e-014 -3.73715e-014
rhumerus -15.8166 -10.9592 -89.6177
rradius 31.48
rwrist 2.15857
rhand -23.2757 -14.122
rfingers 7.12502
rthumb 3.17687 -44.0781
lclavicle 2.54444e-014 -3.73715e-014
lhumerus -19.9998 23.2501 77.6631
lradius 20.9147
lwrist 22.6935
lhand -19.9969 12.3416
lfingers 7.12502
lthumb 6.34286 42.2266
rfemur -27.6232 10.532 14.7978
rtibia 41.4412
rfoot -2.01125 14.6449
rtoes 3.28194
lfemur -6.37446 11.2108 -17.6023
ltibia 28.2836
lfoot -25.1461 15.7272
ltoes 3.69214
3664
root -6.27924 16.4198 6.19797 2334.37 -56.9843 -2333.26
lowerback 1.27136 -1.83661 -2.05465
upperback 9.97498 -2.89953 -1.05814
thorax 9.87685 -1.78658 -0.235008
lowerneck 8.85594 -7.37461 -2.87828
upperneck -11.9322 -9.04981 13.6876
head -4.2252 -5.3448 5.23162
rclavicle 3.45885e-014 -2.06736e-014
rhumerus -15.8623 -11.5362 -89.5817
rradius 31.496
rwrist 1.95409
rhand -23.3642 -14.0578
rfingers 7.12502
rthumb 3.09143 -44.0152
lclavicle 3.45885e-014 -2.06736e-014
lhumerus -19.7673 22.9081 77.7008
lradius 20.7972
lwrist 22.5172
lhand -20.0386 12.1722
lfingers 7.12502
lthumb 6.30253 42.0585
rfemur -27.7997 10.3315 14.6716
rtibia 41.829
rfoot -3.00453 14.4244
rtoes 1.45561
lfemur -6.25809 11.4203 -17.8539
ltibia 28.169
lfoot -25.2323 15.6466
ltoes 4.06119
3665
root -6.26142 16.412 6.22825 2334.6 -56.7188 -2333.63
lowerback 1.22757 -1.71835 -2.08441
upperback 10.0522 -2.73743 -1.19405
thorax 9.98157 -1.70759 -0.356756
lowerneck 8.76582 -6.75708 -2.2527
upperneck -12.0824 -8.19147 12.8568
head -4.39933 -4.89539 4.847
rclavicle -1.25234e-013 4.37326e-014
rhumerus -15.9044 -12.1338 -89.5735
rradius 31.4493
rwrist 1.82788
rhand -23.4557 -14.0266
rfingers 7.12502
rthumb 3.00304 -43.9852
lclavicle -1.25234e-013 4.37326e-014
lhumerus -19.5283 22.5536 77.7042
lradius 20.6421
lwrist 22.3218
lhand -20.1065 11.9751
lfingers 7.12502
lthumb 6.23696 41.8633
rfemur -27.9698 10.1053 14.5756
rtibia 42.2607
rfoot -4.0243 14.0847
rtoes -0.206674
lfemur -6.17479 11.6505 -18.0758
ltibia 28.0799
lfoot -25.2814 15.5051
ltoes 4.37019
3666
root -6.24371 16.4054 6.25612 2334.8 -56.4836 -2333.96
lowerback 1.15235 -1.59978 -2.07601
upperback 10.1143 -2.57254 -1.33788
thorax 10.0866 -1.62234 -0.508423
lowerneck 8.68663 -6.15889 -1.63864
upperneck -12.1751 -7.36688 12.0528
head -4.54053 -4.46277 4.46587
rclavicle -1.66979e-014 3.02153e-014
rhumerus -15.9493 -12.7488 -89.5862
rradius 31.3403
rwrist 1.79189
rhand -23.5325 -14.0347
rfingers 7.12502
rthumb 2.92887 -43.9943
lclavicle -1.66979e-014 3.02153e-014
lhumerus -19.2858 22.1938 77.678
lradius 20.4497
lwrist 22.1115
lhand -20.2076 11.7624
lfingers 7.12502
lthumb 6.13938 41.6534
rfemur -28.14 9.85822 14.5161
rtibia 42.7365
rfoot -5.07232 13.6019
rtoes -1.80196
lfemur -6.13274 11.9152 -18.2638
ltibia 28.0184
lfoot -25.2909 15.3107
ltoes 4.60271
3667
root -6.22608 16.3999 6.28174 2334.99 -56.2774 -2334.22
lowerback 1.04364 -1.48332 -2.02329
upperback 10.1583 -2.40852 -1.48221
thorax 10.1904 -1.53216 -0.685634
lowerneck 8.61791 -5.58604 -1.04706
upperneck -12.2127 -6.58295 11.2857
head -4.64918 -4.0504 4.09501
rclavicle 2.14687e-014 4.77083e-015
rhumerus -15.9963 -13.3773 -89.6109
rradius 31.1714
rwrist 1.85664
rhand -23.5613 -14.0807
rfingers 7.12502
rthumb 2.90103 -44.0407
lclavicle 2.14687e-014 4.77083e-015
lhumerus -19.0424 21.8674 77.6268
lradius 20.2214
lwrist 21.8573
lhand -20.3311 11.5726
lfingers 7.12502
lthumb 6.02014 41.4671
rfemur -28.3152 9.59329 14.5041
rtibia 43.2531
rfoot -6.13775 12.9637
rtoes -3.38428
lfemur -6.13996 12.1954 -18.414
ltibia 27.9845
lfoot -25.2754 15.0847
ltoes 4.79923
3668
root -6.20877 16.3958 6.3054 2335.13 -56.1031 -2334.41
lowerback 0.898929 -1.37217 -1.91623
upperback 10.1848 -2.25062 -1.62048
thorax 10.2954 -1.43895 -0.887401
lowerneck 8.55337 -5.04447 -0.48035
upperneck -12.1941 -5.84698 10.5538
head -4.72495 -3.66125 3.73597
rclavicle -1.09332e-013 4.92986e-014
rhumerus -16.0448 -14.0113 -89.6417
rradius 30.9434
rwrist 1.98783
rhand -23.5437 -14.1377
rfingers 7.12502
rthumb 2.91802 -44.0975
lclavicle -1.09332e-013 4.92986e-014
lhumerus -18.8012 21.5859 77.5597
lradius 19.9675
lwrist 21.5639
lhand -20.4617 11.4386
lfingers 7.12502
lthumb 5.89406 41.3366
rfemur -28.4898 9.30183 14.5521
rtibia 43.8036
rfoot -7.21223 12.1621
rtoes -4.97503
lfemur -6.1943 12.393 -18.533
ltibia 27.9745
lfoot -25.276 14.9021
ltoes 5.01702
3669
root -6.19221 16.3933 6.32711 2335.22 -55.9641 -2334.51
lowerback 0.727659 -1.26915 -1.75923
upperback 10.1959 -2.10394 -1.74481
thorax 10.3992 -1.34609 -1.1029
lowerneck 8.47995 -4.53518 0.0628854
upperneck -12.1129 -5.16097 9.84585
head -4.76545 -3.29485 3.38599
rclavicle 3.85642e-014 2.38542e-014
rhumerus -16.0969 -14.652 -89.6655
rradius 30.6596
rwrist 2.16992
rhand -23.473 -14.1895
rfingers 7.12502
rthumb 2.98631 -44.1484
lclavicle 3.85642e-014 2.38542e-014
lhumerus -18.5738 21.3773 77.4865
lradius 19.7029
lwrist 21.2161
lhand -20.5708 11.3822
lfingers 7.12502
lthumb 5.78871 41.2832
rfemur -28.6478 8.97568 14.6665
rtibia 44.3804
rfoot -8.3005 11.1873
rtoes -6.64344
lfemur -6.28134 12.5302 -18.6118
ltibia 27.9846
lfoot -25.2898 14.7431
ltoes 5.27061
3670
root -6.17661 16.3926 6.34711 2335.26 -55.868 -2334.54
lowerback 0.544993 -1.17881 -1.56227
upperback 10.1894 -1.97538 -1.84937
thorax 10.4909 -1.25814 -1.32021
lowerneck 8.40035 -4.05604 0.5788
upperneck -11.969 -4.52218 9.15493
head -4.77276 -2.94903 3.04494
rclavicle 1.11319e-014 -1.59028e-015
rhumerus -16.1648 -15.2774 -89.6711
rradius 30.3293
rwrist 2.3539
rhand -23.3531 -14.2381
rfingers 7.12502
rthumb 3.1021 -44.1953
lclavicle 1.11319e-014 -1.59028e-015
lhumerus -18.3787 21.2521 77.4132
lradius 19.4422
lwrist 20.8161
lhand -20.627 11.3959
lfingers 7.12502
lthumb 5.73445 41.2983
rfemur -28.7708 8.61228 14.841
rtibia 44.9748
rfoot -9.37195 10.0314
rtoes -8.25405
lfemur -6.38828 12.62 -18.6513
ltibia 28.0109
lfoot -25.3013 14.602
ltoes 5.52054
3671
root -6.16159 16.3931 6.36564 2335.24 -55.8153 -2334.49
lowerback 0.371573 -1.10304 -1.33892
upperback 10.1636 -1.86833 -1.92767
thorax 10.5567 -1.17856 -1.52433
lowerneck 8.30361 -3.60484 1.06833
upperneck -11.756 -3.92883 8.46792
head -4.74481 -2.62158 2.70933
rclavicle -1.23246e-013 3.18055e-015
rhumerus -16.2497 -15.8869 -89.6473
rradius 29.9509
rwrist 2.51747
rhand -23.2052 -14.2724
rfingers 7.12502
rthumb 3.24496 -44.2274
lclavicle -1.23246e-013 3.18055e-015
lhumerus -18.2288 21.1914 77.3512
lradius 19.1974
lwrist 20.4135
lhand -20.6601 11.3969
lfingers 7.12502
lthumb 5.70251 41.3001
rfemur -28.846 8.21225 15.0762
rtibia 45.5805
rfoot -10.4368 8.65978
rtoes -9.94635
lfemur -6.50266 12.5696 -18.6671
ltibia 28.0502
lfoot -25.3502 14.5477
ltoes 5.81123
3672
root -6.14688 16.3947 6.38269 2335.16 -55.8083 -2334.38
lowerback 0.221583 -1.04199 -1.10343
upperback 10.1153 -1.78286 -1.97668
thorax 10.5844 -1.109 -1.70352
lowerneck 8.19208 -3.18292 1.52851
upperneck -11.4781 -3.38212 7.78588
head -4.68428 -2.31333 2.38146
rclavicle 1.78906e-014 -3.97569e-014
rhumerus -16.3579 -16.4898 -89.5828
rradius 29.5236
rwrist 2.65086
rhand -23.0509 -14.2925
rfingers 7.12502
rthumb 3.39395 -44.2452
lclavicle 1.78906e-014 -3.97569e-014
lhumerus -18.1359 21.1771 77.3084
lradius 18.9788
lwrist 20.0338
lhand -20.6718 11.3815
lfingers 7.12502
lthumb 5.69121 41.2851
rfemur -28.8699 7.78998 15.3587
rtibia 46.1919
rfoot -11.4568 7.07052
rtoes -11.5642
lfemur -6.61875 12.4082 -18.6596
ltibia 28.0974
lfoot -25.4206 14.5541
ltoes 6.12551
3673
root -6.13167 16.3974 6.39832 2335.05 -55.8431 -2334.22
lowerback 0.105888 -0.994641 -0.874603
upperback 10.0418 -1.71673 -1.99592
thorax 10.5643 -1.05039 -1.8462
lowerneck 8.06743 -2.7894 1.94091
upperneck -11.1436 -2.88007 7.1306
head -4.59472 -2.02462 2.07214
rclavicle 0 -6.04305e-014
rhumerus -16.4872 -17.0961 -89.4725
rradius 29.0478
rwrist 2.74789
rhand -22.9118 -14.3021
rfingers 7.12502
rthumb 3.52829 -44.2526
lclavicle 0 -6.04305e-014
lhumerus -18.1022 21.1968 77.2841
lradius 18.7914
lwrist 19.6989
lhand -20.6493 11.3701
lfingers 7.12502
lthumb 5.71291 41.2731
rfemur -28.8536 7.36155 15.6732
rtibia 46.8067
rfoot -12.3922 5.2869
rtoes -12.9833
lfemur -6.73868 12.125 -18.6397
ltibia 28.1461
lfoot -25.5132 14.632
ltoes 6.46836
